# xmcd
#
# Track frame offsets:
#	150
#	26710
#	46918
#	66542
#	81930
#	103857
#	124438
#	143154
#	163146
#	179453
#	198011
#	221548
#
# Disc length: 3218 seconds
#
# Revision: 1
# Processed by: cddbd v1.5.2PL0 Copyright (c) Steve Scherf et al.
# Submitted via: audiograbber 1.83.01
#
DISCID=b50c900c
DTITLE=Memorain - Evolution
DYEAR=2012
DGENRE=Metal
TTITLE0=Nations on Fire
TTITLE1=Where Hate Lies 
TTITLE2=The Break 
TTITLE3=Circle 
TTITLE4=Misery 
TTITLE5=Rules of Engagement 
TTITLE6=Death Shop 
TTITLE7=Destiny Found 
TTITLE8=A New Era 
TTITLE9=Power Out 
TTITLE10=Scratching the Surface
TTITLE11=Methods of the Past 
EXTD=
EXTT0=
EXTT1=
EXTT2=
EXTT3=
EXTT4=
EXTT5=
EXTT6=
EXTT7=
EXTT8=
EXTT9=
EXTT10=
EXTT11=
PLAYORDER=
